<svg id="Camada_1" data-name="Camada 1" xmlns="http://www.w3.org/2000/svg" viewBox="0 0 150 150"><defs><style>.cls-1,.cls-2{fill:none;}.cls-2{stroke:#fff;stroke-width:6px;}.cls-3{fill:#fff;}</style></defs><g id="Grupo_29" data-name="Grupo 29"><g id="Elipse_2" data-name="Elipse 2"><circle class="cls-1" cx="75.38" cy="75.12" r="74.62"/><circle class="cls-2" cx="75.38" cy="75.12" r="70.89"/></g><g id="Grupo_26" data-name="Grupo 26"><path id="Caminho_15" data-name="Caminho 15" class="cls-3" d="M52.91,110.7a4.46,4.46,0,0,1-.95-3.08V48.27a10,10,0,0,1,2.42-7.35,9.78,9.78,0,0,1,7.25-2.46H88.36a9.78,9.78,0,0,1,7.25,2.46A10,10,0,0,1,98,48.27v59.35a4.46,4.46,0,0,1-1,3.08,3.37,3.37,0,0,1-2.67,1.09,3.66,3.66,0,0,1-2.34-.85c-.71-.57-1.85-1.6-3.4-3.08L75.3,94.7a.36.36,0,0,0-.51-.1.35.35,0,0,0-.11.1L61.32,107.86A45.4,45.4,0,0,1,57.9,111a3.73,3.73,0,0,1-2.32.84A3.37,3.37,0,0,1,52.91,110.7Z"/></g></g></svg>