<svg id="Camada_1" data-name="Camada 1" xmlns="http://www.w3.org/2000/svg" xmlns:xlink="http://www.w3.org/1999/xlink" viewBox="0 0 428 245"><defs><style>.cls-1{fill:none;}.cls-2{clip-path:url(#clip-path);}.cls-3{fill:#0f0f0f;}.cls-4{fill:#d8d6d6;}</style><clipPath id="clip-path"><rect class="cls-1" x="507" width="428" height="926"/></clipPath></defs><g class="cls-2"><g id="Grupo_15" data-name="Grupo 15"><g id="Grupo_16" data-name="Grupo 16"><path id="Caminho_11" data-name="Caminho 11" class="cls-3" d="M425,101s96.34,141.6,275,103c162-35,218-35,281,9.8L975-34H494Z"/></g></g></g><path class="cls-3" d="M428.5.5H.5V174.42c46,27.05,110.57,47.25,192.5,29.55,123.3-26.64,185.19-33,235.5-14.77Z"/><path class="cls-4" d="M428.5,189.2C378.19,171,316.29,177.33,193,204c-81.94,17.7-146.55-2.5-192.5-29.56V198c40.31,28.5,100.78,54,181.5,41.9,75.16-11.23,160.76-62,246.5-35Z"/></svg>