<svg id="Camada_1" data-name="Camada 1" xmlns="http://www.w3.org/2000/svg" viewBox="0 0 150 150"><defs><style>.cls-1,.cls-2{fill:none;}.cls-2,.cls-3{stroke:#fff;}.cls-2{stroke-width:6px;}.cls-3{fill:#fff;}</style></defs><g id="Grupo_30" data-name="Grupo 30"><g id="Elipse_1" data-name="Elipse 1"><circle class="cls-1" cx="74.62" cy="75.1" r="75.1"/><circle class="cls-2" cx="74.62" cy="75.1" r="71.35"/></g><g id="Grupo_25" data-name="Grupo 25"><path id="Caminho_14" data-name="Caminho 14" class="cls-3" d="M52.78,110.91a4.55,4.55,0,0,1-1-3.09V48.08a10.11,10.11,0,0,1,2.45-7.39,9.75,9.75,0,0,1,7.29-2.48H88.46a9.75,9.75,0,0,1,7.29,2.48,10.06,10.06,0,0,1,2.44,7.39v59.74a4.49,4.49,0,0,1-1,3.09,3.36,3.36,0,0,1-2.68,1.1,3.69,3.69,0,0,1-2.36-.85q-1.08-.87-3.42-3.1L75.31,94.81a.37.37,0,0,0-.52-.1.47.47,0,0,0-.1.1L61.24,108.06a46.17,46.17,0,0,1-3.44,3.11,3.77,3.77,0,0,1-2.34.84A3.35,3.35,0,0,1,52.78,110.91Zm20.4-22.64a2.5,2.5,0,0,1,3.65,0l14.9,14.46a.79.79,0,0,0,.71.26c.21-.06.32-.26.32-.61V48.15a4.53,4.53,0,0,0-1.15-3.38,4.64,4.64,0,0,0-3.38-1.13H61.84a4.67,4.67,0,0,0-3.43,1.13,4.57,4.57,0,0,0-1.15,3.38v54.23c0,.35.11.55.33.61a.77.77,0,0,0,.7-.26Z"/></g></g></svg>